<svg id="google-play" xmlns="http://www.w3.org/2000/svg" width="26.249" height="28" viewBox="0 0 26.249 28">
  <g id="Group_10" data-name="Group 10" transform="translate(1.766)">
    <g id="Group_9" data-name="Group 9" transform="translate(0 0)">
      <path id="Path_33" data-name="Path 33" d="M51.772.448A3.555,3.555,0,0,0,48.3.457L61.059,12.225l4.286-4.286Z" transform="translate(-48.302 0)" fill="#fff"/>
    </g>
  </g>
  <g id="Group_12" data-name="Group 12" transform="translate(0 1.66)">
    <g id="Group_11" data-name="Group 11" transform="translate(0)">
      <path id="Path_34" data-name="Path 34" d="M16.5,30.365a3.263,3.263,0,0,0-.49,1.71V53.329A3.274,3.274,0,0,0,16.471,55L29.3,42.168Z" transform="translate(-16.014 -30.365)" fill="#fff"/>
    </g>
  </g>
  <g id="Group_14" data-name="Group 14" transform="translate(15.809 8.819)">
    <g id="Group_13" data-name="Group 13">
      <path id="Path_35" data-name="Path 35" d="M313.783,163.533l-4.088-2.256-4.593,4.592,5.629,5.192,3.054-1.685a3.307,3.307,0,0,0,0-5.843Z" transform="translate(-305.102 -161.277)" fill="#fff"/>
    </g>
  </g>
  <g id="Group_16" data-name="Group 16" transform="translate(1.708 14.65)">
    <g id="Group_15" data-name="Group 15" transform="translate(0)">
      <path id="Path_36" data-name="Path 36" d="M60.11,267.9,47.246,280.765a3.547,3.547,0,0,0,3.528.033l14.589-8.051Z" transform="translate(-47.246 -267.901)" fill="#fff"/>
    </g>
  </g>
</svg>