<?xml version="1.0" encoding="UTF-8"?><svg id="Layer_1" xmlns="http://www.w3.org/2000/svg" viewBox="0 0 32.23 36.67"><defs><style>.cls-1{fill:#efb741;}</style></defs><g id="location" transform="translate(-31)"><g id="Group_46" transform="translate(35.297)"><g id="Group_45"><path id="Path_92" class="cls-1" d="M16.11,0C9.59,0,4.3,5.28,4.3,11.81c0,2.47,.77,4.88,2.21,6.89l8.7,13.58c.32,.5,.98,.65,1.48,.33,.13-.08,.24-.19,.33-.33l8.74-13.62c3.77-5.33,2.51-12.7-2.81-16.47C20.95,.76,18.56,0,16.11,0Zm0,17.19c-2.97,0-5.37-2.4-5.37-5.37,0-2.97,2.4-5.37,5.37-5.37,2.97,0,5.37,2.4,5.37,5.37,0,2.96-2.41,5.37-5.37,5.37Z"/></g></g><g id="Group_48" transform="translate(31 24.685)"><g id="Group_47"><path id="Path_93" class="cls-1" d="M24.51,24.69l-5.41,8.45c-1.06,1.65-3.26,2.13-4.91,1.07-.43-.28-.79-.64-1.07-1.07l-5.42-8.45c-4.77,1.1-7.71,3.12-7.71,5.53,0,4.19,8.3,6.45,16.11,6.45s16.11-2.26,16.11-6.45c0-2.41-2.94-4.43-7.71-5.53Z"/></g></g></g></svg>