<svg xmlns="http://www.w3.org/2000/svg" xmlns:xlink="http://www.w3.org/1999/xlink" width="48" height="48" viewBox="0 0 48 48">
  <defs>
    <clipPath id="clip-path">
      <circle id="Ellipse_3" data-name="Ellipse 3" cx="24" cy="24" r="24" transform="translate(231 756)" fill="#ab3232"/>
    </clipPath>
  </defs>
  <g id="Mask_Group_1" data-name="Mask Group 1" transform="translate(-231 -756)" clip-path="url(#clip-path)">
    <g id="dow--big" transform="translate(231 756)">
      <path id="Path_1" data-name="Path 1" d="M0,0H48V48H0Z" fill="#e80033"/>
      <path id="Path_2" data-name="Path 2" d="M23.983,17.143l4.629,1.534,15.96,5.263L23.983,30.857,3.429,23.966Zm-1.577,6.891c0,.754.746,1.217,1.611,1.217.909,0,1.62-.5,1.62-1.217s-.711-1.251-1.62-1.251S22.406,23.271,22.406,24.034Zm-1.389,0c0-1.586,1.286-2.606,3.034-2.606a2.769,2.769,0,0,1,3.034,2.606c-.026,1.611-1.414,2.537-3.069,2.537S21.017,25.611,21.017,24.034Zm5.974-1.946h2.537v.317H29.4a.4.4,0,0,0-.283.549l.754,1.843,1.046-2.709h1.4l1.08,2.709.789-1.9a.257.257,0,0,0-.06-.257.335.335,0,0,0-.257-.171h-.154v-.317h2.494v.326h-.154a.452.452,0,0,0-.343.163.514.514,0,0,0-.231.291l-1.234,2.9a.454.454,0,0,0,0,.291.319.319,0,0,0,.223.129h.189v.326h-2.5V26.28h.2a.219.219,0,0,0,.189-.129.283.283,0,0,0,0-.223l-.917-2.134-.891,2.1a.206.206,0,0,0-.026.223.191.191,0,0,0,.189.129h.086v.326h-2.46v-.326h.12a.252.252,0,0,0,.223-.129.249.249,0,0,0,0-.291l-1.234-3a.315.315,0,0,0-.223-.257.356.356,0,0,1-.111-.06.362.362,0,0,0-.171-.069h-.129v-.351ZM15.634,25.371h1.971a1.491,1.491,0,0,0,1.286-1.611c-.086-1.123-.591-1.577-1.44-1.577H15.634v3.189Zm-1.92-4.337h3.771a2.965,2.965,0,0,1,2.794,2.743,2.811,2.811,0,0,1-2.734,2.794H13.714v-.317h.223a.351.351,0,0,0,.283-.163c.06-.034.086-.163.086-.257V21.711a.437.437,0,0,0-.4-.351h-.189Z" fill="#fff" fill-rule="evenodd"/>
    </g>
  </g>
</svg>