<svg xmlns="http://www.w3.org/2000/svg" xmlns:xlink="http://www.w3.org/1999/xlink" width="48" height="48" viewBox="0 0 48 48">
  <defs>
    <clipPath id="clip-path">
      <circle id="Ellipse_11" data-name="Ellipse 11" cx="24" cy="24" r="24" transform="translate(447 756)" fill="#fff"/>
    </clipPath>
  </defs>
  <g id="Mask_Group_7" data-name="Mask Group 7" transform="translate(-447 -756)" clip-path="url(#clip-path)">
    <g id="amazon--big" transform="translate(447 756)">
      <path id="Path_15" data-name="Path 15" d="M0,0H48V48H0Z" fill="#2a261c"/>
      <path id="Path_16" data-name="Path 16" d="M34.037,27.861a4.471,4.471,0,0,1-1.3-3.35v-5.88c0-2.481-.17-4.8-2.006-6.5a8.984,8.984,0,0,0-5.8-1.844c-4.042,0-7.654,1.634-8.535,6.027a.676.676,0,0,0,.588.78l3.831.351c.367,0,.588-.354.663-.709a3.356,3.356,0,0,1,3.091-2.741,2.583,2.583,0,0,1,2.4,2.511v2.126a19.253,19.253,0,0,0-7.04,1.008c-2.426.994-4.5,2.9-4.5,5.947,0,3.9,3.017,6.027,6.25,6.027,2.721,0,4.2-.7,6.333-2.761a10.707,10.707,0,0,0,2.321,2.76.784.784,0,0,0,.881-.069c.735-.639,2.016-1.983,2.823-2.619.368-.285.3-.709,0-1.063Zm-7.07-5.52c0,1.417-.279,4.953-3.879,4.953-1.851,0-1.89-2.171-1.89-2.171,0-2.782,2.976-3.71,5.769-3.71v.927Z" fill="#fff"/>
      <path id="Path_17" data-name="Path 17" d="M35.308,34.4a21.849,21.849,0,0,1-11.294,3.309,21.325,21.325,0,0,1-13.61-4.9c-.288-.266,0-.53.291-.4a28.136,28.136,0,0,0,13.245,3.243,32.143,32.143,0,0,0,10.932-1.986c.506-.132.941.4.435.729Zm1.086-1.391c-.363-.463-2.534-.2-3.476-.132-.291,0-.362-.2-.074-.4,1.665-1.127,4.488-.8,4.779-.4s-.073,2.979-1.665,4.172c-.219.2-.507.064-.363-.132.362-.8,1.16-2.649.8-3.114Z" fill="#ffb300"/>
    </g>
  </g>
</svg>