<svg xmlns="http://www.w3.org/2000/svg" xmlns:xlink="http://www.w3.org/1999/xlink" width="43.162" height="50.162" viewBox="0 0 43.162 50.162">
  <defs>
    <clipPath id="clip-path">
      <circle id="Ellipse_6" data-name="Ellipse 6" cx="15" cy="15" r="15" transform="translate(877 756)" fill="#fff"/>
    </clipPath>
    <clipPath id="clip-path-2">
      <circle id="Ellipse_10" data-name="Ellipse 10" cx="15" cy="15" r="15" transform="translate(888 774)" fill="#fff"/>
    </clipPath>
  </defs>
  <g id="Mask_Group_4" data-name="Mask Group 4" transform="translate(-743.245 -883.885) rotate(9)" clip-path="url(#clip-path)">
    <g id="EU--big" transform="translate(877 756)">
      <path id="Path_7" data-name="Path 7" d="M0,0H30V30H0Z" fill="#1565c0"/>
      <path id="Path_8" data-name="Path 8" d="M14.917,3.333l.617,1.9h2L15.917,6.4l.617,1.9L14.917,7.133,13.317,8.3l.6-1.883-1.6-1.167h2L14.9,3.333Zm-8.183,3.4,1.783.9,1.4-1.4L9.617,8.2l1.767.9-1.967.317L9.1,11.383,8.2,9.617l-1.967.3,1.4-1.4-.9-1.783Zm-3.4,8.183,1.9-.617v-2L6.4,13.917l1.917-.583-1.167,1.6L8.317,16.55l-1.883-.617L5.267,17.55v-2Zm3.4,8.183.9-1.767-1.4-1.417,1.967.317.9-1.783.317,1.983,1.967.3-1.767.917.3,1.967L8.517,22.2l-1.783.9Zm8.183,3.4L14.3,24.6h-2l1.617-1.167-.583-1.9,1.6,1.167,1.617-1.167-.617,1.9L17.55,24.6h-2l-.617,1.9ZM23.1,23.1l-1.767-.9-1.417,1.417.317-1.967-1.783-.917,1.983-.3.3-1.983.917,1.783,1.967-.317L22.2,21.333l.9,1.767Zm3.4-8.183-1.9.617v2l-1.167-1.617-1.9.617L22.7,14.917l-1.167-1.6,1.9.6,1.167-1.6v2l1.9.6ZM23.1,6.733l-.9,1.783,1.417,1.4-1.967-.3-.917,1.767-.3-1.967L18.45,9.1l1.783-.9-.317-1.967,1.417,1.4,1.767-.9Z" fill="#fdd835"/>
    </g>
  </g>
  <g id="Mask_Group_5" data-name="Mask Group 5" transform="translate(-874.838 -753.838)" clip-path="url(#clip-path-2)">
    <g id="US--big" transform="translate(888 774)">
      <path id="Path_9" data-name="Path 9" d="M0,0H30V30H0Z" fill="#f8f9fd"/>
      <path id="Path_10" data-name="Path 10" d="M18.333,6.667H30V0H18.333ZM0,30H30V23.333H0ZM18.333,18.333H30V11.667H18.333Z" fill="#ef5350"/>
      <path id="Path_11" data-name="Path 11" d="M0,0H18.333V18.333H0Z" fill="#1e88e5"/>
      <path id="Path_12" data-name="Path 12" d="M4.033,2.033a.15.15,0,0,1,.267,0l.45,1.183a.14.14,0,0,0,.133.1l1.267.067a.15.15,0,0,1,.083.267l-1,.783A.15.15,0,0,0,5.2,4.6l.333,1.2a.15.15,0,0,1-.233.167L4.25,5.283a.15.15,0,0,0-.167,0l-1.05.683A.15.15,0,0,1,2.8,5.8l.333-1.217a.15.15,0,0,0-.05-.167L2.1,3.65a.15.15,0,0,1,.083-.267L3.45,3.317a.14.14,0,0,0,.133-.1l.45-1.167Zm0,5a.15.15,0,0,1,.267,0l.45,1.183a.14.14,0,0,0,.133.1l1.267.067a.15.15,0,0,1,.083.267l-1,.783A.15.15,0,0,0,5.2,9.6l.333,1.2a.15.15,0,0,1-.233.167l-1.05-.683a.15.15,0,0,0-.167,0l-1.05.683A.15.15,0,0,1,2.8,10.8l.333-1.217a.15.15,0,0,0-.05-.167L2.1,8.65a.15.15,0,0,1,.083-.267L3.45,8.317a.14.14,0,0,0,.133-.1l.45-1.167Zm0,5a.15.15,0,0,1,.267,0l.45,1.183a.14.14,0,0,0,.133.1l1.267.067a.15.15,0,0,1,.083.267l-1,.783A.15.15,0,0,0,5.2,14.6l.333,1.2a.15.15,0,0,1-.233.167l-1.05-.683a.15.15,0,0,0-.167,0l-1.05.683A.15.15,0,0,1,2.8,15.8l.333-1.217a.15.15,0,0,0-.05-.167L2.1,13.65a.15.15,0,0,1,.083-.267l1.267-.067a.14.14,0,0,0,.133-.1l.45-1.167Zm5-10a.15.15,0,0,1,.267,0l.45,1.183a.14.14,0,0,0,.133.1l1.267.067a.15.15,0,0,1,.083.267l-1,.783A.15.15,0,0,0,10.2,4.6l.333,1.2a.15.15,0,0,1-.233.167L9.25,5.283a.15.15,0,0,0-.167,0l-1.05.683A.15.15,0,0,1,7.8,5.8l.333-1.217a.15.15,0,0,0-.05-.167L7.1,3.65a.15.15,0,0,1,.083-.267L8.45,3.317a.14.14,0,0,0,.133-.1l.45-1.167Zm0,5a.15.15,0,0,1,.267,0l.45,1.183a.14.14,0,0,0,.133.1l1.267.067a.15.15,0,0,1,.083.267l-1,.783A.15.15,0,0,0,10.2,9.6l.333,1.2a.15.15,0,0,1-.233.167l-1.05-.683a.15.15,0,0,0-.167,0l-1.05.683A.15.15,0,0,1,7.8,10.8l.333-1.217a.15.15,0,0,0-.05-.167L7.1,8.65a.15.15,0,0,1,.083-.267L8.45,8.317a.14.14,0,0,0,.133-.1l.45-1.167Zm0,5a.15.15,0,0,1,.267,0l.45,1.183a.14.14,0,0,0,.133.1l1.267.067a.15.15,0,0,1,.083.267l-1,.783a.15.15,0,0,0-.033.167l.333,1.2a.15.15,0,0,1-.233.167l-1.05-.683a.15.15,0,0,0-.167,0l-1.05.683A.15.15,0,0,1,7.8,15.8l.333-1.217a.15.15,0,0,0-.05-.167L7.1,13.65a.15.15,0,0,1,.083-.267l1.267-.067a.14.14,0,0,0,.133-.1l.45-1.167Zm5-10a.15.15,0,0,1,.267,0l.45,1.183a.14.14,0,0,0,.133.1l1.267.067a.15.15,0,0,1,.083.267l-1,.783A.15.15,0,0,0,15.2,4.6l.333,1.2a.15.15,0,0,1-.233.167l-1.05-.683a.15.15,0,0,0-.167,0l-1.05.683A.15.15,0,0,1,12.8,5.8l.333-1.217a.15.15,0,0,0-.05-.167L12.1,3.65a.15.15,0,0,1,.083-.267l1.267-.067a.14.14,0,0,0,.133-.1l.45-1.167Zm0,5a.15.15,0,0,1,.267,0l.45,1.183a.14.14,0,0,0,.133.1l1.267.067a.15.15,0,0,1,.083.267l-1,.783A.15.15,0,0,0,15.2,9.6l.333,1.2a.15.15,0,0,1-.233.167l-1.05-.683a.15.15,0,0,0-.167,0l-1.05.683A.15.15,0,0,1,12.8,10.8l.333-1.217a.15.15,0,0,0-.05-.167L12.1,8.65a.15.15,0,0,1,.083-.267l1.267-.067a.14.14,0,0,0,.133-.1l.45-1.167Zm0,5a.15.15,0,0,1,.267,0l.45,1.183a.14.14,0,0,0,.133.1l1.267.067a.15.15,0,0,1,.083.267l-1,.783a.15.15,0,0,0-.033.167l.333,1.2a.15.15,0,0,1-.233.167l-1.05-.683a.15.15,0,0,0-.167,0l-1.05.683A.15.15,0,0,1,12.8,15.8l.333-1.217a.15.15,0,0,0-.05-.167L12.1,13.65a.15.15,0,0,1,.083-.267l1.267-.067a.14.14,0,0,0,.133-.1l.45-1.167Z" fill="#f8f9fd"/>
    </g>
  </g>
</svg>