<svg xmlns="http://www.w3.org/2000/svg" width="54.249" height="43.4" viewBox="0 0 54.249 43.4">
  <path id="path2" d="M23.7,28.412v5.425a2.711,2.711,0,0,1-4.448,2.083L2.976,22.358a2.71,2.71,0,0,1,0-4.166L19.251,4.63A2.711,2.711,0,0,1,23.7,6.713v5.425h2.712a2.712,2.712,0,1,1,0,5.425H20.987a2.713,2.713,0,0,1-2.712-2.712V12.5L8.949,20.275l9.325,7.771V25.7a2.713,2.713,0,0,1,2.712-2.712H34.549V17.562A2.711,2.711,0,0,1,39,15.479L55.273,29.042a2.71,2.71,0,0,1,0,4.166L39,46.77a2.711,2.711,0,0,1-4.448-2.083V39.262H31.837a2.712,2.712,0,1,1,0-5.425h5.425a2.713,2.713,0,0,1,2.712,2.712V38.9L49.3,31.125l-9.325-7.771V25.7a2.713,2.713,0,0,1-2.712,2.712Z" transform="translate(-2 -4)" fill="#efb741" fill-rule="evenodd"/>
</svg>