<svg xmlns="http://www.w3.org/2000/svg" width="47.718" height="41.7" viewBox="0 0 47.718 41.7">
  <g id="hand-holding-up-a-diamond" transform="translate(0 -23.028)">
    <g id="Group_41" data-name="Group 41" transform="translate(0 23.028)">
      <path id="Path_90" data-name="Path 90" d="M29.527,46.154c-6.9,2.614-6.923-3.776-6.923-3.776s-.28-6.211,1.267-8S28.681,29.4,29.8,29.294a15.232,15.232,0,0,0,6.67-.721c2.545-1.1,2.893-3.19,1.929-3.677-.349-.176-.349-.176-3.3-.833l-4.137-.921c-1.175-.261-2.948-.224-7.922,1.806-2.443,1-4.588,2.036-4.678,2.08a3.466,3.466,0,0,0-1.182,1C10.2,36.854,0,58.695,0,58.695l11.828,6.033c4.462-6.822,11.026-7.194,16.076-9.577,1.786-.843,4.083-2.668,8.507-5.267.6-.35,2.373-1.773,2.147-2.407C38.356,46.91,35.538,43.878,29.527,46.154Z" transform="translate(0 -23.028)" fill="#efb741"/>
      <path id="Path_91" data-name="Path 91" d="M243.682,84.762l-3.614-5.631a.34.34,0,0,0-.286-.156H229.433a.34.34,0,0,0-.285.156l-3.614,5.631a.339.339,0,0,0,.023.4l6.707,8.249a.339.339,0,0,0,.263.125h4.161a.341.341,0,0,0,.264-.125l6.707-8.249A.34.34,0,0,0,243.682,84.762Z" transform="translate(-196.017 -71.664)" fill="#efb741"/>
    </g>
  </g>
</svg>