<svg xmlns="http://www.w3.org/2000/svg" width="22" height="16.208" viewBox="0 0 22 16.208">
  <g id="email" transform="translate(0 -57.088)">
    <g id="Group_42" data-name="Group 42" transform="translate(0 61.659)">
      <g id="Group_41" data-name="Group 41" transform="translate(0 0)">
        <path id="Path_86" data-name="Path 86" d="M11.636,153.512a1.25,1.25,0,0,1-1.3,0L0,147.2v8.39a3.248,3.248,0,0,0,3.247,3.247H18.753A3.248,3.248,0,0,0,22,155.59V147.2Z" transform="translate(0 -147.2)" fill="#efb741"/>
      </g>
    </g>
    <g id="Group_44" data-name="Group 44" transform="translate(0.104 57.088)">
      <g id="Group_43" data-name="Group 43" transform="translate(0 0)">
        <path id="Path_87" data-name="Path 87" d="M20.7,57.088H5.191a3.228,3.228,0,0,0-3.143,2.545l10.909,6.649L23.84,59.633A3.228,3.228,0,0,0,20.7,57.088Z" transform="translate(-2.048 -57.088)" fill="#efb741"/>
      </g>
    </g>
  </g>
</svg>