<svg xmlns="http://www.w3.org/2000/svg" width="22" height="22" viewBox="0 0 22 22">
  <path id="phone-call" d="M22.292,16.84c-.06-.048-4.426-3.194-5.624-2.969-.572.1-.9.491-1.555,1.272-.106.126-.359.428-.557.643a9.179,9.179,0,0,1-1.211-.493A10.047,10.047,0,0,1,8.71,10.659a9.136,9.136,0,0,1-.493-1.211c.216-.2.518-.452.647-.56.777-.653,1.168-.98,1.269-1.553.208-1.188-2.937-5.584-2.97-5.623A1.679,1.679,0,0,0,5.913,1C4.639,1,1,5.72,1,6.515c0,.046.067,4.742,5.858,10.633C12.743,22.933,17.438,23,17.485,23,18.28,23,23,19.361,23,18.087a1.674,1.674,0,0,0-.708-1.247Z" transform="translate(-1 -1)" fill="#efb741"/>
</svg>