<svg xmlns="http://www.w3.org/2000/svg" width="18.588" height="22.28" viewBox="0 0 18.588 22.28">
  <g id="user" transform="translate(0 0)">
    <path id="Path_88" data-name="Path 88" d="M92.4,10.732A5.192,5.192,0,0,0,96.192,9.16a5.192,5.192,0,0,0,1.572-3.794,5.193,5.193,0,0,0-1.572-3.794,5.365,5.365,0,0,0-7.588,0,5.192,5.192,0,0,0-1.572,3.794A5.192,5.192,0,0,0,88.6,9.16,5.193,5.193,0,0,0,92.4,10.732Zm0,0" transform="translate(-83.245)" fill="#efb741"/>
    <path id="Path_89" data-name="Path 89" d="M18.543,253.686a13.254,13.254,0,0,0-.181-1.408,11.091,11.091,0,0,0-.346-1.415,6.991,6.991,0,0,0-.582-1.32,4.981,4.981,0,0,0-.877-1.143,3.869,3.869,0,0,0-1.26-.792,4.356,4.356,0,0,0-1.609-.291,1.633,1.633,0,0,0-.872.37c-.261.17-.567.368-.909.586a5.206,5.206,0,0,1-1.176.518,4.565,4.565,0,0,1-2.876,0,5.194,5.194,0,0,1-1.175-.518c-.338-.216-.644-.413-.909-.586a1.631,1.631,0,0,0-.872-.37,4.35,4.35,0,0,0-1.609.292,3.865,3.865,0,0,0-1.261.792,4.982,4.982,0,0,0-.877,1.143,7,7,0,0,0-.582,1.32,11.119,11.119,0,0,0-.346,1.415,13.208,13.208,0,0,0-.181,1.408C.015,254.113,0,254.556,0,255a3.7,3.7,0,0,0,1.1,2.8,3.955,3.955,0,0,0,2.831,1.033H14.658a3.955,3.955,0,0,0,2.831-1.033,3.7,3.7,0,0,0,1.1-2.8c0-.449-.015-.892-.045-1.316Zm0,0" transform="translate(0 -236.554)" fill="#efb741"/>
  </g>
</svg>