<svg xmlns="http://www.w3.org/2000/svg" width="47" height="48" viewBox="0 0 47 48">
  <g id="candlestick-chart" transform="translate(-6.5 -6)">
    <path id="Path_86" data-name="Path 86" d="M40.5,33V47a1,1,0,0,1-1,1h-2v5a1,1,0,0,1-2,0V48h-2a1,1,0,0,1-1-1V33a1,1,0,0,1,1-1h2V27a1,1,0,0,1,2,0v5h2A1,1,0,0,1,40.5,33Z" fill="#efb741"/>
    <path id="Path_87" data-name="Path 87" d="M53.5,21V39a1,1,0,0,1-1,1h-2v5a1,1,0,0,1-2,0V40h-2a1,1,0,0,1-1-1V21a1,1,0,0,1,1-1h2V16a1,1,0,0,1,2,0v4h2A1,1,0,0,1,53.5,21Z" fill="#efb741"/>
    <path id="Path_88" data-name="Path 88" d="M14.5,39v8a1,1,0,0,1-1,1h-2v5a1,1,0,0,1-2,0V48h-2a1,1,0,0,1-1-1V39a1,1,0,0,1,1-1h2V33a1,1,0,0,1,2,0v5h2A1,1,0,0,1,14.5,39Z" fill="#efb741"/>
    <path id="Path_89" data-name="Path 89" d="M27.5,12V33a1,1,0,0,1-1,1h-2v5a1,1,0,0,1-2,0V34h-2a1,1,0,0,1-1-1V12a1,1,0,0,1,1-1h2V7a1,1,0,0,1,2,0v4h2A1,1,0,0,1,27.5,12Z" fill="#efb741"/>
  </g>
</svg>