<svg xmlns="http://www.w3.org/2000/svg" width="79" height="79" viewBox="0 0 79 79">
  <circle id="Ellipse_15" data-name="Ellipse 15" cx="39.5" cy="39.5" r="39.5" fill="#db9e1d"/>
  <path id="candlestick" d="M36.813,7.512h-1.1V1.187a1.188,1.188,0,1,0-2.375,0V7.512h-1.1A1.187,1.187,0,0,0,31.043,8.7V19.068a1.187,1.187,0,0,0,1.188,1.188h1.1v6.326a1.188,1.188,0,0,0,2.375,0V20.256h1.1A1.187,1.187,0,0,0,38,19.068V8.7A1.187,1.187,0,0,0,36.813,7.512ZM35.626,17.881H33.418V9.887h2.208Zm-9.16-.138h-1.1V11.418a1.188,1.188,0,1,0-2.375,0v6.326h-1.1A1.187,1.187,0,0,0,20.7,18.931V29.3a1.187,1.187,0,0,0,1.188,1.188h1.1v6.326a1.188,1.188,0,0,0,2.375,0V30.487h1.1A1.187,1.187,0,0,0,27.653,29.3V18.931a1.187,1.187,0,0,0-1.188-1.188ZM25.278,28.112H23.071V20.118h2.208Zm-9.16-20.6h-1.1V1.187a1.188,1.188,0,0,0-2.375,0V7.512h-1.1A1.187,1.187,0,0,0,10.348,8.7V19.068a1.187,1.187,0,0,0,1.188,1.188h1.1v6.326a1.188,1.188,0,0,0,2.375,0V20.256h1.1a1.187,1.187,0,0,0,1.188-1.188V8.7a1.187,1.187,0,0,0-1.188-1.188ZM14.93,17.881H12.723V9.887H14.93Zm-9.16-.138h-1.1V11.418a1.188,1.188,0,1,0-2.375,0v6.326h-1.1A1.187,1.187,0,0,0,0,18.931V29.3a1.187,1.187,0,0,0,1.188,1.188h1.1v6.326a1.188,1.188,0,0,0,2.375,0V30.487h1.1A1.187,1.187,0,0,0,6.958,29.3V18.931A1.187,1.187,0,0,0,5.77,17.743ZM4.583,28.112H2.375V20.118H4.583Z" transform="translate(20 21)" fill="#f2e9d5"/>
</svg>