<svg xmlns="http://www.w3.org/2000/svg" width="14.717" height="14.72" viewBox="0 0 14.717 14.72">
  <g id="instagram" transform="translate(-0.449)">
    <path id="Path_63" data-name="Path 63" d="M15.128,4.328a5.379,5.379,0,0,0-.342-1.786A3.771,3.771,0,0,0,12.632.388,5.392,5.392,0,0,0,10.846.046C10.058.009,9.808,0,7.81,0S5.561.009,4.776.043A5.38,5.38,0,0,0,2.991.385a3.591,3.591,0,0,0-1.306.851,3.624,3.624,0,0,0-.848,1.3A5.393,5.393,0,0,0,.495,4.325C.457,5.113.449,5.363.449,7.361S.457,9.61.492,10.4a5.378,5.378,0,0,0,.342,1.786,3.77,3.77,0,0,0,2.154,2.154,5.393,5.393,0,0,0,1.786.342c.785.035,1.035.043,3.034.043s2.249-.009,3.034-.043a5.377,5.377,0,0,0,1.786-.342,3.765,3.765,0,0,0,2.154-2.154,5.4,5.4,0,0,0,.342-1.786c.034-.785.043-1.035.043-3.034s0-2.249-.037-3.034ZM13.8,10.337a4.035,4.035,0,0,1-.253,1.366,2.442,2.442,0,0,1-1.4,1.4,4.049,4.049,0,0,1-1.366.253c-.776.035-1.009.043-2.973.043s-2.2-.009-2.973-.043A4.033,4.033,0,0,1,3.474,13.1a2.265,2.265,0,0,1-.845-.549,2.288,2.288,0,0,1-.549-.845,4.05,4.05,0,0,1-.253-1.366c-.035-.776-.043-1.009-.043-2.973s.009-2.2.043-2.973a4.032,4.032,0,0,1,.253-1.366,2.237,2.237,0,0,1,.552-.845,2.285,2.285,0,0,1,.845-.549A4.052,4.052,0,0,1,4.842,1.38c.776-.034,1.009-.043,2.973-.043s2.2.009,2.973.043a4.035,4.035,0,0,1,1.366.253A2.263,2.263,0,0,1,13,2.183a2.288,2.288,0,0,1,.549.845A4.051,4.051,0,0,1,13.8,4.394c.034.776.043,1.009.043,2.973s-.009,2.194-.043,2.97Zm0,0" transform="translate(0 0)" fill="#efb741"/>
    <path id="Path_64" data-name="Path 64" d="M128.73,124.5a3.781,3.781,0,1,0,3.781,3.781A3.782,3.782,0,0,0,128.73,124.5Zm0,6.234a2.453,2.453,0,1,1,2.453-2.453A2.453,2.453,0,0,1,128.73,130.734Zm0,0" transform="translate(-120.92 -120.92)" fill="#efb741"/>
    <path id="Path_65" data-name="Path 65" d="M364.215,89.485a.883.883,0,1,1-.883-.883A.883.883,0,0,1,364.215,89.485Zm0,0" transform="translate(-351.592 -86.054)" fill="#efb741"/>
  </g>
</svg>