<svg id="app-store" xmlns="http://www.w3.org/2000/svg" width="26.716" height="26.716" viewBox="0 0 26.716 26.716">
  <g id="Group_17" data-name="Group 17">
    <path id="Path_37" data-name="Path 37" d="M21.237,0H5.479A5.485,5.485,0,0,0,0,5.479V21.237a5.485,5.485,0,0,0,5.479,5.479H21.237a5.485,5.485,0,0,0,5.479-5.479V5.479A5.485,5.485,0,0,0,21.237,0ZM8.226,20.586a1.3,1.3,0,0,1-2.259-1.3l.257-.444H9.236Zm-2.46-2.792a1.3,1.3,0,1,1,0-2.609H8.332l3.52-6.1L10.9,7.436a1.306,1.306,0,0,1,.477-1.782h0a1.306,1.306,0,0,1,1.782.477l.2.348.2-.348a1.3,1.3,0,1,1,2.259,1.3l-4.474,7.749h2.822l1.506,2.609Zm15.184,0H19.89l.859,1.488a1.3,1.3,0,1,1-2.259,1.3L13.961,12.74l1.506-2.609,2.917,5.053H20.95a1.3,1.3,0,0,1,0,2.609Z" fill="#fff"/>
  </g>
</svg>