<svg xmlns="http://www.w3.org/2000/svg" width="24.043" height="24.043" viewBox="0 0 24.043 24.043">
  <g id="kuwait" transform="translate(0)">
    <path id="Path_40" data-name="Path 40" d="M23.3,154.1a12.065,12.065,0,0,0,0-8.363L12.022,144.7.748,145.741a12.065,12.065,0,0,0,0,8.363l11.274,1.045Z" transform="translate(0 -137.901)" fill="#f0f0f0"/>
    <path id="Path_41" data-name="Path 41" d="M27.2,352.883a12.026,12.026,0,0,0,11.274-7.84H15.922A12.026,12.026,0,0,0,27.2,352.883Z" transform="translate(-15.175 -328.84)" fill="#d80027"/>
    <path id="Path_42" data-name="Path 42" d="M27.2,0A12.026,12.026,0,0,0,15.922,7.84H38.47A12.026,12.026,0,0,0,27.2,0Z" transform="translate(-15.175)" fill="#6da544"/>
    <path id="Path_43" data-name="Path 43" d="M3.521,74.98a12.022,12.022,0,0,0,0,17L7.84,87.662V79.3Z" transform="translate(0 -71.459)"/>
  </g>
</svg>