<svg id="language" xmlns="http://www.w3.org/2000/svg" width="18.667" height="18.667" viewBox="0 0 18.667 18.667">
  <g id="Group_32" data-name="Group 32" transform="translate(4.386 4.995)">
    <g id="Group_31" data-name="Group 31">
      <path id="Path_73" data-name="Path 73" d="M120.964,137h-.234l-.437,2.188H121.4Z" transform="translate(-120.293 -137)" fill="#efb741"/>
    </g>
  </g>
  <g id="Group_34" data-name="Group 34" transform="translate(13.904 9.37)">
    <g id="Group_33" data-name="Group 33">
      <path id="Path_74" data-name="Path 74" d="M381.374,257a5.715,5.715,0,0,0,.9,1.585,5.775,5.775,0,0,0,.934-1.585Z" transform="translate(-381.374 -257)" fill="#efb741"/>
    </g>
  </g>
  <g id="Group_36" data-name="Group 36" transform="translate(8.847 3.318)">
    <g id="Group_35" data-name="Group 35">
      <path id="Path_75" data-name="Path 75" d="M250.842,91H244.05l1.416,11.363a1.7,1.7,0,0,1-.405,1.245l-2.4,2.741h8.179a1.642,1.642,0,0,0,1.641-1.641V92.677A1.674,1.674,0,0,0,250.842,91Zm0,6.052H250.7a6.939,6.939,0,0,1-1.317,2.4c.4.367.831.669,1.258,1.006a.547.547,0,0,1-.684.853c-.464-.366-.9-.673-1.335-1.073-.436.4-.835.706-1.3,1.073a.547.547,0,0,1-.684-.853c.427-.337.82-.639,1.222-1.006a6.9,6.9,0,0,1-1.281-2.4h-.146a.547.547,0,0,1,0-1.094h1.641v-.547a.547.547,0,0,1,1.094,0v.547h1.677a.547.547,0,0,1,0,1.094Z" transform="translate(-242.663 -91)" fill="#efb741"/>
    </g>
  </g>
  <g id="Group_38" data-name="Group 38">
    <g id="Group_37" data-name="Group 37">
      <path id="Path_76" data-name="Path 76" d="M8.9,1.437A1.643,1.643,0,0,0,7.274,0H1.641A1.642,1.642,0,0,0,0,1.641v12.1a1.642,1.642,0,0,0,1.641,1.641h8.624c.16-.182.293-.3.3-.535C10.565,14.791,8.909,1.5,8.9,1.437Zm-2.2,9.016a.547.547,0,0,1-.644-.429l-.35-1.748H4.167l-.35,1.748a.547.547,0,1,1-1.072-.215L3.839,4.341a.547.547,0,0,1,.536-.44h1.13a.547.547,0,0,1,.536.44L7.135,9.809A.547.547,0,0,1,6.706,10.453Z" fill="#efb741"/>
    </g>
  </g>
  <g id="Group_40" data-name="Group 40" transform="translate(6.39 16.479)">
    <g id="Group_39" data-name="Group 39">
      <path id="Path_77" data-name="Path 77" d="M175.261,452l.094.75a1.654,1.654,0,0,0,.946,1.271L178.137,452Z" transform="translate(-175.261 -452)" fill="#efb741"/>
    </g>
  </g>
</svg>