<svg id="money" xmlns="http://www.w3.org/2000/svg" width="33.475" height="33.475" viewBox="0 0 33.475 33.475">
  <path id="Path_78" data-name="Path 78" d="M137.917,18.769a9.384,9.384,0,1,0-9.384-9.384A9.395,9.395,0,0,0,137.917,18.769Zm-.981-13.475V5.183a.981.981,0,1,1,1.961,0v.07h.07a.981.981,0,0,1,0,1.961h-1.576a.6.6,0,0,0,0,1.19h1.051a2.556,2.556,0,0,1,.456,5.071v.111a.981.981,0,1,1-1.961,0v-.07h-.07a.981.981,0,0,1,0-1.961h1.576a.6.6,0,1,0,0-1.19h-1.05a2.556,2.556,0,0,1-.456-5.071Z" transform="translate(-120.129)" fill="#efb741"/>
  <path id="Path_79" data-name="Path 79" d="M451.28,51.106l2.1-1.05A.981.981,0,0,0,452.5,48.3l-2.1,1.05a.981.981,0,0,0,.877,1.754Z" transform="translate(-420.448 -45.046)" fill="#efb741"/>
  <path id="Path_80" data-name="Path 80" d="M453.38,193.952l-2.1-1.05a.981.981,0,0,0-.877,1.754l2.1,1.05a.981.981,0,0,0,.877-1.754Z" transform="translate(-420.448 -180.193)" fill="#efb741"/>
  <path id="Path_81" data-name="Path 81" d="M35.653,49.351l-2.1-1.051a.981.981,0,0,0-.877,1.754l2.1,1.05a.981.981,0,0,0,.877-1.754Z" transform="translate(-30.032 -45.045)" fill="#efb741"/>
  <path id="Path_82" data-name="Path 82" d="M34.776,192.9l-2.1,1.05a.981.981,0,0,0,.877,1.754l2.1-1.05a.981.981,0,0,0-.877-1.754Z" transform="translate(-30.032 -180.193)" fill="#efb741"/>
  <path id="Path_83" data-name="Path 83" d="M129.653,315.715l-4.743,4.743a3.062,3.062,0,0,1-2.179.9h-3.559a1,1,0,0,1-1.007-.933.981.981,0,0,1,.98-1.028h3.176a2.1,2.1,0,0,0,0-4.2h-6.4a4.151,4.151,0,0,0-4.074,3.151h-1.517v7.214h13.524a4.538,4.538,0,0,0,3.229-1.338l7.12-7.12a.98.98,0,0,0,0-1.392A3.207,3.207,0,0,0,129.653,315.715Z" transform="translate(-103.118 -294.188)" fill="#efb741"/>
  <path id="Path_84" data-name="Path 84" d="M4.272,337.4H.981a.981.981,0,0,0-.981.981v9.454a.981.981,0,0,0,.981.981H4.272a.981.981,0,0,0,.981-.981v-9.454A.981.981,0,0,0,4.272,337.4Z" transform="translate(0 -315.34)" fill="#efb741"/>
</svg>