<svg xmlns="http://www.w3.org/2000/svg" width="35.375" height="49.219" viewBox="0 0 35.375 49.219">
  <g id="income" transform="translate(-173.932 -2)">
    <path id="Path_72" data-name="Path 72" d="M177.358,19.556a1.757,1.757,0,0,1,.207-3.5h28.11a1.757,1.757,0,0,1,.207,3.5c.169.2.334.413.5.638,1.507,2.073,2.809,5.2,2.809,9.916,0,4.339.408,8.74-.286,12.219a9.226,9.226,0,0,1-4.053,6.427c-2.523,1.576-7.867,2.463-13.229,2.463s-10.706-.887-13.229-2.463a9.226,9.226,0,0,1-4.053-6.427c-.694-3.479-.286-7.88-.286-12.219,0-4.714,1.3-7.843,2.809-9.916.163-.225.329-.436.5-.638Zm16.019,7.1v-.018a1.757,1.757,0,0,0-3.514-.023,4.63,4.63,0,0,0-2.662,1.69,4.462,4.462,0,0,0-.852,2.737c0,2.265,1.565,3.414,3.739,4.048.787.228,1.655.4,2.41.65a3.6,3.6,0,0,1,.645.274c.118.069.234.141.234.3,0,.7-.531.968-1.114,1.047a4.913,4.913,0,0,1-3.175-.747,1.757,1.757,0,1,0-1.964,2.913,8.211,8.211,0,0,0,2.739,1.138V40.7a1.757,1.757,0,0,0,3.514.026,5.251,5.251,0,0,0,.543-.158,4.189,4.189,0,0,0,2.971-4.248c0-2.265-1.565-3.414-3.739-4.048-.787-.23-1.655-.4-2.41-.652a3.592,3.592,0,0,1-.645-.272c-.118-.069-.234-.142-.234-.3,0-.708.532-.987,1.121-1.07a4.715,4.715,0,0,1,3.143.754,1.758,1.758,0,0,0,2.013-2.881,8.1,8.1,0,0,0-2.764-1.189ZM178.3,12.541c-1.153-2.356-2.314-4.731-2.808-5.747a2.4,2.4,0,0,1,.729-2.99,1.575,1.575,0,0,1,.176-.114c.987-.562,3.48-1.69,8.2-1.69a11.482,11.482,0,0,1,5.46,1.588c1.929,1.012,3.807,2.351,6.548,2.351A26.411,26.411,0,0,0,204.348,4.4,2.411,2.411,0,0,1,207.3,7.733l-2.354,4.809Z" transform="translate(0 0)" fill="#fff" fill-rule="evenodd"/>
  </g>
</svg>