<svg xmlns="http://www.w3.org/2000/svg" width="46.26" height="52.869" viewBox="0 0 46.26 52.869">
  <path id="Path_96" data-name="Path 96" d="M22.633,0H50.708L65.589,14.823V49.565a3.3,3.3,0,0,1-3.3,3.3H22.633a3.3,3.3,0,0,1-3.3-3.3V3.3A3.3,3.3,0,0,1,22.633,0Z" transform="translate(-19.329)" fill="#efb741"/>
  <path id="Path_98" data-name="Path 98" d="M109.362,137.322a.961.961,0,0,0,0-1.9H106.21a.985.985,0,0,0-.96,1.074v7.747c0,.691.393,1.074.925,1.074s.924-.383.924-1.074v-2.126h1.907a.9.9,0,0,0,.887-.965.879.879,0,0,0-.887-.939H107.1v-2.89Zm-10.655-1.9H96.4a1.02,1.02,0,0,0-1.071,1.067v7.76a1.016,1.016,0,0,0,1.1,1.039h2.42a4.489,4.489,0,0,0,4.757-4.795C103.6,137.416,101.822,135.42,98.708,135.42Zm.111,7.954H97.412v-6.04H98.68c1.918,0,2.752,1.287,2.752,3.063C101.432,142.059,100.612,143.374,98.818,143.374Zm-8.449-7.954H88.084a.961.961,0,0,0-1.006,1.074v7.747a.973.973,0,1,0,1.936,0v-2.262h1.432a3.128,3.128,0,0,0,3.227-3.266A3.165,3.165,0,0,0,90.369,135.42Zm-.038,4.742H89.014v-2.923h1.317a1.468,1.468,0,0,1,0,2.923Z" transform="translate(-75.496 -112.27)" fill="#fff"/>
</svg>