<svg xmlns="http://www.w3.org/2000/svg" width="15.93" height="15.93" viewBox="0 0 15.93 15.93">
  <g id="pinterest-circular-logo-symbol" transform="translate(0 -0.01)">
    <g id="Group_22" data-name="Group 22" transform="translate(0 0.01)">
      <path id="Path_66" data-name="Path 66" d="M11.963,1.078a7.791,7.791,0,0,0-4-1.068,7.791,7.791,0,0,0-4,1.068,7.931,7.931,0,0,0-2.9,2.9A7.792,7.792,0,0,0,0,7.975a7.72,7.72,0,0,0,1.317,4.387,7.936,7.936,0,0,0,3.454,2.914,6.857,6.857,0,0,1,.135-1.836L5.932,9.105A2.766,2.766,0,0,1,5.673,7.84a2.375,2.375,0,0,1,.446-1.473,1.325,1.325,0,0,1,1.089-.591.973.973,0,0,1,.8.342,1.315,1.315,0,0,1,.28.861,3.229,3.229,0,0,1-.119.783q-.119.462-.311,1.068t-.275.97a1.176,1.176,0,0,0,.239,1.084,1.268,1.268,0,0,0,1.016.451,2.086,2.086,0,0,0,1.82-1.234,5.918,5.918,0,0,0,.71-3,2.941,2.941,0,0,0-.876-2.209,3.361,3.361,0,0,0-2.442-.85,3.776,3.776,0,0,0-3.92,3.816,2.36,2.36,0,0,0,.529,1.566.473.473,0,0,1,.114.446q-.021.062-.083.311c-.041.166-.069.273-.083.322q-.083.332-.394.207A2.34,2.34,0,0,1,3,9.561a4.146,4.146,0,0,1-.415-1.9,4.527,4.527,0,0,1,.223-1.39A4.739,4.739,0,0,1,3.5,4.931,5.461,5.461,0,0,1,4.631,3.785a5.311,5.311,0,0,1,1.6-.8,6.665,6.665,0,0,1,2.033-.3,5.338,5.338,0,0,1,2.645.653A4.671,4.671,0,0,1,12.7,5.029a4.269,4.269,0,0,1,.617,2.22,6.978,6.978,0,0,1-.539,2.8A4.6,4.6,0,0,1,11.253,12a3.736,3.736,0,0,1-2.24.71,2.457,2.457,0,0,1-1.182-.3,1.728,1.728,0,0,1-.757-.7q-.467,1.835-.56,2.188a6.384,6.384,0,0,1-.809,1.7,7.965,7.965,0,0,0,6.259-.736,7.932,7.932,0,0,0,2.9-2.9,7.792,7.792,0,0,0,1.068-4,7.793,7.793,0,0,0-1.068-4A7.935,7.935,0,0,0,11.963,1.078Z" transform="translate(0 -0.01)" fill="#efb741"/>
    </g>
  </g>
</svg>