<svg id="romania" xmlns="http://www.w3.org/2000/svg" width="24.022" height="24.022" viewBox="0 0 24.022 24.022">
  <path id="Path_46" data-name="Path 46" d="M154.1.747a12.055,12.055,0,0,0-8.355,0L144.7,12.011l1.044,11.264a12.054,12.054,0,0,0,8.355,0l1.044-11.264Z" transform="translate(-137.907)" fill="#ffda44"/>
  <path id="Path_47" data-name="Path 47" d="M352.876,27.187a12.015,12.015,0,0,0-7.833-11.264V38.451A12.015,12.015,0,0,0,352.876,27.187Z" transform="translate(-328.854 -15.176)" fill="#d80027"/>
  <path id="Path_48" data-name="Path 48" d="M0,27.188A12.015,12.015,0,0,0,7.833,38.452V15.924A12.015,12.015,0,0,0,0,27.188Z" transform="translate(0 -15.177)" fill="#0052b4"/>
</svg>