<svg id="settings" xmlns="http://www.w3.org/2000/svg" width="22" height="22" viewBox="0 0 22 22">
  <g id="Group_24" data-name="Group 24" transform="translate(4.628 9.901)">
    <g id="Group_23" data-name="Group 23">
      <path id="Path_68" data-name="Path 68" d="M114.622,233.6a.559.559,0,0,0-.559.559,2.618,2.618,0,1,1-2.618-2.618.559.559,0,1,0,0-1.117,3.736,3.736,0,1,0,3.735,3.736A.559.559,0,0,0,114.622,233.6Z" transform="translate(-107.71 -230.42)" fill="#efb741"/>
    </g>
  </g>
  <g id="Group_26" data-name="Group 26" transform="translate(0 6.017)">
    <g id="Group_25" data-name="Group 25" transform="translate(0)">
      <path id="Path_69" data-name="Path 69" d="M15.978,148.937a.559.559,0,0,0-.647-.454l-1.169.2a.559.559,0,0,0-.443.405,5.512,5.512,0,0,1-.549,1.322.559.559,0,0,0,.027.6l.682.972a.34.34,0,0,1-.038.437l-.7.7a.34.34,0,0,1-.437.038l-.972-.682a.559.559,0,0,0-.6-.027,5.508,5.508,0,0,1-1.322.549.559.559,0,0,0-.405.443L9.2,154.616a.34.34,0,0,1-.336.282H7.868a.34.34,0,0,1-.336-.282l-.2-1.169A.559.559,0,0,0,6.922,153a5.516,5.516,0,0,1-1.323-.549.559.559,0,0,0-.6.027l-.971.682a.34.34,0,0,1-.437-.038l-.7-.7a.341.341,0,0,1-.038-.437l.682-.972a.559.559,0,0,0,.027-.6,5.5,5.5,0,0,1-.549-1.322.559.559,0,0,0-.443-.405l-1.169-.2a.34.34,0,0,1-.282-.335v-.992a.34.34,0,0,1,.282-.336l1.169-.2a.559.559,0,0,0,.443-.405,5.5,5.5,0,0,1,.549-1.323.559.559,0,0,0-.027-.6l-.682-.969a.34.34,0,0,1,.038-.437l.7-.7a.34.34,0,0,1,.437-.038l.972.682a.558.558,0,0,0,.6.027,5.511,5.511,0,0,1,1.323-.549.559.559,0,0,0,.405-.443l.2-1.169a.559.559,0,0,0-1.1-.193l-.145.829a6.628,6.628,0,0,0-.928.387l-.69-.484a1.455,1.455,0,0,0-1.868.163l-.7.7a1.456,1.456,0,0,0-.162,1.868l.484.69a6.62,6.62,0,0,0-.387.928l-.829.145A1.456,1.456,0,0,0,0,147.156v.992a1.456,1.456,0,0,0,1.206,1.436l.829.146a6.615,6.615,0,0,0,.387.928l-.486.69a1.456,1.456,0,0,0,.163,1.868l.7.7a1.456,1.456,0,0,0,1.868.162l.688-.484a6.634,6.634,0,0,0,.928.387l.145.829a1.456,1.456,0,0,0,1.438,1.2H8.86a1.456,1.456,0,0,0,1.436-1.206l.146-.829a6.626,6.626,0,0,0,.928-.387l.69.484a1.456,1.456,0,0,0,1.868-.163l.7-.7a1.456,1.456,0,0,0,.163-1.868l-.483-.687a6.633,6.633,0,0,0,.387-.928l.829-.146A.559.559,0,0,0,15.978,148.937Z" transform="translate(0 -140.033)" fill="#efb741"/>
    </g>
  </g>
  <g id="Group_28" data-name="Group 28" transform="translate(8.58 0)">
    <g id="Group_27" data-name="Group 27" transform="translate(0 0)">
      <path id="Path_70" data-name="Path 70" d="M212.061,5.07l-.584-.1a5.351,5.351,0,0,0-.258-.617l.344-.484a1.265,1.265,0,0,0-.141-1.624l-.553-.555a1.266,1.266,0,0,0-1.626-.142l-.486.341a5.334,5.334,0,0,0-.617-.258l-.1-.582A1.265,1.265,0,0,0,206.791,0h-.782a1.265,1.265,0,0,0-1.248,1.048l-.1.584a5.332,5.332,0,0,0-.617.258l-.486-.344a1.265,1.265,0,0,0-1.624.141l-.553.553a1.266,1.266,0,0,0-.142,1.626l.341.486a5.332,5.332,0,0,0-.258.617l-.582.1a1.265,1.265,0,0,0-1.048,1.248V7.1a1.266,1.266,0,0,0,1.048,1.249l.584.1a5.332,5.332,0,0,0,.258.617l-.341.486a1.266,1.266,0,0,0,.14,1.624l.553.553a1.265,1.265,0,0,0,1.624.141l.487-.341a5.351,5.351,0,0,0,.617.258l.1.584a1.265,1.265,0,0,0,1.248,1.048h.782a1.265,1.265,0,0,0,1.247-1.05l.1-.584a5.333,5.333,0,0,0,.617-.258l.484.343a1.265,1.265,0,0,0,1.626-.142l.553-.553a1.266,1.266,0,0,0,.142-1.623l-.342-.488a5.351,5.351,0,0,0,.258-.617l.584-.1A1.265,1.265,0,0,0,213.11,7.1V6.319A1.265,1.265,0,0,0,212.061,5.07ZM211.992,7.1a.15.15,0,0,1-.124.148l-.921.162a.559.559,0,0,0-.443.405,4.225,4.225,0,0,1-.421,1.014.559.559,0,0,0,.027.6l.538.767a.15.15,0,0,1-.017.193l-.553.553a.15.15,0,0,1-.191.014l-.768-.537a.559.559,0,0,0-.6-.027,4.222,4.222,0,0,1-1.014.421.559.559,0,0,0-.4.444l-.162.921a.15.15,0,0,1-.148.124h-.782a.15.15,0,0,1-.148-.124l-.162-.921a.559.559,0,0,0-.405-.443,4.229,4.229,0,0,1-1.014-.421.558.558,0,0,0-.6.027l-.764.536a.15.15,0,0,1-.193-.017l-.553-.553a.15.15,0,0,1-.017-.193l.538-.767a.559.559,0,0,0,.027-.6,4.218,4.218,0,0,1-.421-1.014.559.559,0,0,0-.444-.4l-.921-.162a.15.15,0,0,1-.124-.148V6.319a.15.15,0,0,1,.124-.148l.921-.162a.559.559,0,0,0,.443-.405,4.222,4.222,0,0,1,.421-1.014.559.559,0,0,0-.027-.6l-.536-.766a.15.15,0,0,1,.017-.193l.553-.553a.15.15,0,0,1,.193-.017l.766.538a.559.559,0,0,0,.6.027A4.221,4.221,0,0,1,205.3,2.6a.559.559,0,0,0,.405-.443l.162-.921a.15.15,0,0,1,.146-.122h.782a.15.15,0,0,1,.148.124l.162.921a.559.559,0,0,0,.405.443,4.217,4.217,0,0,1,1.014.421.559.559,0,0,0,.6-.027l.767-.538a.15.15,0,0,1,.192.017l.553.553a.15.15,0,0,1,.015.191l-.538.768a.559.559,0,0,0-.027.6,4.224,4.224,0,0,1,.421,1.014.559.559,0,0,0,.443.405l.921.162a.15.15,0,0,1,.124.148Z" transform="translate(-199.69 0)" fill="#efb741"/>
    </g>
  </g>
  <g id="Group_30" data-name="Group 30" transform="translate(12.621 4.041)">
    <g id="Group_29" data-name="Group 29">
      <path id="Path_71" data-name="Path 71" d="M296.4,94.05a2.669,2.669,0,1,0,2.669,2.669A2.669,2.669,0,0,0,296.4,94.05Zm0,4.22a1.553,1.553,0,0,1,0-3.105v0a1.552,1.552,0,0,1,0,3.1Z" transform="translate(-293.73 -94.05)" fill="#efb741"/>
    </g>
  </g>
</svg>