<svg xmlns="http://www.w3.org/2000/svg" width="16.921" height="14.72" viewBox="0 0 16.921 14.72">
  <g id="twitter" transform="translate(-0.001 -33.299)">
    <g id="Group_21" data-name="Group 21" transform="translate(0.001 33.299)">
      <path id="Path_62" data-name="Path 62" d="M16.847,35.819a.5.5,0,0,0-.474-.238l-.844.074.806-1.626a.5.5,0,0,0-.674-.677L13.528,34.4a3.606,3.606,0,0,0-4.1.543,4.366,4.366,0,0,0-1.351,3.509,7.347,7.347,0,0,1-5.8-3.951.5.5,0,0,0-.849-.06,3.462,3.462,0,0,0-.22,3.629c-.166-.042-.342-.1-.538-.164a.5.5,0,0,0-.658.561,4.244,4.244,0,0,0,2.41,3.21,4.239,4.239,0,0,1-.53.147.5.5,0,0,0-.266.839,6.834,6.834,0,0,0,3.324,1.769,5.707,5.707,0,0,1-4.076.961.5.5,0,0,0-.391.843c.731.805,3.393,1.713,6.191,1.782q.166,0,.339,0a8.969,8.969,0,0,0,6.425-2.285,9.092,9.092,0,0,0,2.623-4.827,9.386,9.386,0,0,0,.017-3.164c-.006-.041-.012-.084-.017-.122l.789-1.272A.5.5,0,0,0,16.847,35.819Z" transform="translate(-0.001 -33.299)" fill="#efb741"/>
    </g>
  </g>
</svg>