<svg xmlns="http://www.w3.org/2000/svg" width="40.293" height="29.685" viewBox="0 0 40.293 29.685">
  <g id="email" transform="translate(0 -57.088)">
    <g id="Group_42" data-name="Group 42" transform="translate(0 65.461)">
      <g id="Group_41" data-name="Group 41" transform="translate(0 0)">
        <path id="Path_86" data-name="Path 86" d="M21.312,158.76a2.29,2.29,0,0,1-2.379,0L0,147.2v15.366a5.949,5.949,0,0,0,5.946,5.946h28.4a5.949,5.949,0,0,0,5.946-5.946V147.2Z" transform="translate(0 -147.2)" fill="#fff"/>
      </g>
    </g>
    <g id="Group_44" data-name="Group 44" transform="translate(0.19 57.088)">
      <g id="Group_43" data-name="Group 43" transform="translate(0 0)">
        <path id="Path_87" data-name="Path 87" d="M36.2,57.088H7.8A5.911,5.911,0,0,0,2.048,61.75l19.98,12.178L41.96,61.75A5.911,5.911,0,0,0,36.2,57.088Z" transform="translate(-2.048 -57.088)" fill="#fff"/>
      </g>
    </g>
  </g>
</svg>