<svg xmlns="http://www.w3.org/2000/svg" width="42.667" height="42.667" viewBox="0 0 42.667 42.667">
  <path id="phone-call" d="M42.294,31.72c-.117-.092-8.583-6.2-10.907-5.757-1.109.2-1.744.953-3.017,2.468-.2.245-.7.831-1.079,1.247a17.8,17.8,0,0,1-2.348-.956,19.484,19.484,0,0,1-8.99-8.99A17.718,17.718,0,0,1,15,17.384c.418-.384,1-.876,1.254-1.087,1.508-1.266,2.266-1.9,2.462-3.012.4-2.3-5.7-10.829-5.76-10.906A3.255,3.255,0,0,0,10.529,1C8.057,1,1,10.155,1,11.7c0,.09.129,9.2,11.361,20.622C23.774,43.537,32.881,43.667,32.97,43.667c1.543,0,10.7-7.057,10.7-9.529A3.247,3.247,0,0,0,42.294,31.72Z" transform="translate(-1 -1)" fill="#fff"/>
</svg>