<svg xmlns="http://www.w3.org/2000/svg" width="53.164" height="63.723" viewBox="0 0 53.164 63.723">
  <g id="user" transform="translate(0 0)">
    <path id="Path_25" data-name="Path 25" d="M102.38,30.7a14.85,14.85,0,0,0,10.852-4.5,14.85,14.85,0,0,0,4.5-10.852,14.852,14.852,0,0,0-4.5-10.852,15.344,15.344,0,0,0-21.7,0,14.851,14.851,0,0,0-4.5,10.851,14.85,14.85,0,0,0,4.5,10.852,14.854,14.854,0,0,0,10.851,4.5Zm0,0" transform="translate(-76.2)" fill="#fff"/>
    <path id="Path_26" data-name="Path 26" d="M53.035,265.535a37.908,37.908,0,0,0-.516-4.026,31.723,31.723,0,0,0-.99-4.048,20,20,0,0,0-1.664-3.776,14.248,14.248,0,0,0-2.51-3.27,11.065,11.065,0,0,0-3.6-2.265,12.459,12.459,0,0,0-4.6-.833,4.671,4.671,0,0,0-2.495,1.058c-.748.488-1.622,1.052-2.6,1.675a14.89,14.89,0,0,1-3.362,1.481,13.056,13.056,0,0,1-8.225,0,14.855,14.855,0,0,1-3.36-1.481c-.967-.618-1.842-1.182-2.6-1.676a4.665,4.665,0,0,0-2.494-1.058,12.443,12.443,0,0,0-4.6.834,11.055,11.055,0,0,0-3.605,2.265,14.249,14.249,0,0,0-2.509,3.27,20.035,20.035,0,0,0-1.664,3.776,31.8,31.8,0,0,0-.99,4.048,37.776,37.776,0,0,0-.516,4.028C.043,266.756,0,268.021,0,269.3A10.581,10.581,0,0,0,3.142,277.3a11.313,11.313,0,0,0,8.1,2.954H41.923a11.31,11.31,0,0,0,8.1-2.954,10.576,10.576,0,0,0,3.143-8.006c0-1.284-.044-2.55-.129-3.764Zm0,0" transform="translate(0 -216.536)" fill="#fff"/>
  </g>
</svg>