<svg xmlns="http://www.w3.org/2000/svg" width="58.794" height="51.445" viewBox="0 0 58.794 51.445">
  <g id="money-bag" transform="translate(0 -1)">
    <path id="Path_27" data-name="Path 27" d="M47.77,42.646a11.024,11.024,0,1,1,0-22.048h6.124V15.7a4.9,4.9,0,0,0-4.9-4.9h-2.45V5.9a4.9,4.9,0,0,0-4.9-4.9H7.349A7.344,7.344,0,0,0,.125,7.122,2.344,2.344,0,0,0,0,7.737V45.1a7.358,7.358,0,0,0,7.349,7.349H48.995a4.9,4.9,0,0,0,4.9-4.9v-4.9ZM4.9,8.349A2.452,2.452,0,0,1,7.349,5.9h34.3v4.9H7.349A2.452,2.452,0,0,1,4.9,8.349Z" transform="translate(0 0)" fill="#fff"/>
    <path id="Path_28" data-name="Path 28" d="M33.036,10.5H23.849a7.349,7.349,0,0,0,0,14.7h9.187a1.838,1.838,0,0,0,1.837-1.837V12.337A1.838,1.838,0,0,0,33.036,10.5Zm-9.187,9.8a2.45,2.45,0,1,1,2.45-2.45A2.451,2.451,0,0,1,23.849,20.3Z" transform="translate(23.921 13.773)" fill="#fff"/>
  </g>
</svg>