<svg xmlns="http://www.w3.org/2000/svg" width="37.195" height="33.475" viewBox="0 0 37.195 33.475">
  <g id="users-three-Filled" transform="translate(-42.667 -64)">
    <path id="users-three-Filled-2" data-name="users-three-Filled" d="M76.793,70.9a6.869,6.869,0,0,1-4.854,6.565,10.993,10.993,0,0,0,.484-3.236,11.141,11.141,0,0,0-5.45-9.578A7,7,0,0,1,69.912,64,6.893,6.893,0,0,1,76.793,70.9ZM75.4,79.436a3.06,3.06,0,0,0-2.325.279,6.188,6.188,0,0,1-2.585.762,9.483,9.483,0,0,1-1.3,1.581,10.088,10.088,0,0,1,6.807,7.978h1.283A2.285,2.285,0,0,0,79.3,88.865a4.746,4.746,0,0,0,.558-2.251v-1.32A6.027,6.027,0,0,0,75.4,79.436ZM55.555,64.651A7,7,0,0,0,52.616,64a6.886,6.886,0,0,0-2.027,13.465,10.993,10.993,0,0,1-.484-3.236,11.141,11.141,0,0,1,5.45-9.578ZM53.342,82.058a9.483,9.483,0,0,1-1.3-1.581,6.188,6.188,0,0,1-2.585-.762,3.06,3.06,0,0,0-2.325-.279,6.027,6.027,0,0,0-4.463,5.858v1.32a4.746,4.746,0,0,0,.558,2.251,2.277,2.277,0,0,0,2.009,1.171h1.3a10.088,10.088,0,0,1,6.807-7.978Zm14.58,2.529a4.337,4.337,0,0,0-.986-.13,3.777,3.777,0,0,0-1.841.484,7.938,7.938,0,0,1-7.662,0,3.777,3.777,0,0,0-1.841-.484,4.338,4.338,0,0,0-.986.13,7.355,7.355,0,0,0-5.43,7.122v1.618a5.715,5.715,0,0,0,.688,2.715A2.706,2.706,0,0,0,52.3,97.475H70.228a2.706,2.706,0,0,0,2.436-1.432,5.715,5.715,0,0,0,.688-2.715V91.71A7.355,7.355,0,0,0,67.922,84.587Zm1.711-10.359A8.369,8.369,0,1,0,61.264,82.6,8.369,8.369,0,0,0,69.633,74.229Z" fill="#efb741"/>
  </g>
</svg>